<?xml version="1.0" encoding="UTF-8"?>
<svg xmlns="http://www.w3.org/2000/svg" width="122.259mm" height="192.889mm" viewBox="8.870457 -208.444458 122.259109 192.888947">
    <path transform="matrix(1,0,0,-1,0,0)" style="stroke:none;fill:#000000;fill-rule:evenodd" d="M47.029381,206.75531C37.955597,203.076736,24.810881,194.052017,20.543751,188.607758C12.990442,178.896362,8.870457,153.489761,12.254731,137.156952C12.64711,135.440308,12.303778,134.949829,10.73426,134.949829C8.330935,134.949829,8.281887,134.116028,10.390928,131.12413C11.273782,129.848877,14.049047,127.569527,14,126C15.020267,119.132317,15.06533,116.053909,16.470415,107.613182C19.069931,98.931778,19.317566,92.523773,20.102325,84.529037C20.98518,75.16098,25.007071,65.351486,29.813721,60.888168C30.402292,60.348633,32.560379,57.062469,34.620369,53.580078C37.906551,48.03772,39.427025,44.162979,44.429867,29.007309C47.519855,19.639252,53.454597,16.696396,71.258827,15.617355C89.945908,14.440201,108.829185,29.988251,108.829185,46.517258C108.829185,50.637238,109.662994,53.089615,113.439644,60.152451C115.941055,64.861008,118.344391,70.942902,118.785812,73.640503C119.227242,76.33812,120.012009,80.556198,120.551521,82.959518C121.091042,85.41188,121.532471,90.267593,121.532471,93.848053C121.58152,99.047089,121.9739,100.665649,123.543411,102.08802C124.622459,103.068977,125.505318,104.589447,125.505318,105.472305C125.505318,106.355156,126.339119,109.739426,127.369118,112.927521C129.527206,119.647018,131.881485,138.726486,130.900543,141.767426C130.262924,143.876465,127.957687,144.366943,125.505318,142.846466C124.279129,142.061707,123.8377,143.925507,122.464371,154.863098C120.894852,167.026871,119.619621,172.618286,115.941055,182.820145C112.802025,191.501556,102.6492,199.937714,88.719727,205.43103C80.430695,208.717194,53.896023,209.551025,47.029381,206.75531M25.252308,165.898773C24.810881,164.476395,20.543751,164.672577,20.543751,166.144012C20.543751,166.977814,21.426605,167.321152,23.045174,167.124969C24.369453,166.977814,25.39945,166.438293,25.252308,165.898773M49.776039,78.20192C50.11937,75.847626,46.980331,74.081924,43.890343,74.866684C41.585114,75.504303,41.634159,75.945724,44.675102,78.74144C47.61795,81.439041,49.33461,81.291901,49.776039,78.20192M69.247879,176.149689C70.032639,176.149689,70.425018,175.708267,70.08168,175.11969C69.738358,174.58017,68.708359,174.236847,67.8255,174.383987C66.942642,174.58017,66.059799,173.893509,65.863609,172.961609C65.618362,171.735413,65.9617,171.441132,67.08979,171.833527C68.119789,172.225891,68.61026,171.882568,68.61026,170.754471C68.61026,169.430191,68.07074,169.184952,66.15789,169.67543C64.686462,170.06781,63.705517,169.871613,63.705517,169.234009C63.705517,168.645432,63.264088,168.449249,62.724571,168.792572C62.185043,169.13591,61.743618,170.165894,61.743618,171.048752C61.743618,173.206848,66.8936,178.847305,67.433121,177.277786C67.629311,176.640167,68.46312,176.149689,69.247879,176.149689M90.289238,84.185699C93.967796,82.027618,93.575424,79.869522,89.357338,78.790482C85.48259,77.80954,85.727829,77.613342,84.992111,82.223801C84.3545,86.490936,85.62973,86.981407,90.289238,84.185699M128.448151,140.29599C128.448151,140.001709,127.565315,138.039825,126.486259,135.881729C124.818657,132.644592,124.720558,132.006973,125.995789,132.006973C127.02578,132.006973,127.467216,130.97699,127.467216,128.622711L127.467216,125.238426L124.524368,126.906044C120.99295,128.916992,120.747719,131.467453,123.543411,136.96077C125.16198,140.148849,128.448151,142.355988,128.448151,140.29599M126.093887,123.178436C127.859589,123.178436,127.810547,120.431778,125.995789,117.292732C125.211029,115.968452,124.573418,113.908463,124.573418,112.731323C124.524368,111.603241,123.886749,110.131813,123.10199,109.494194C121.875809,108.464195,121.679611,108.905632,121.77771,112.535133C121.826759,114.889412,121.532471,118.42083,121.140091,120.431778C120.012009,125.630806,121.23819,128.377472,123.249138,125.385574C124.082947,124.159386,125.358177,123.178436,126.093887,123.178436M102.403961,184.929184C102.158722,184.487762,103.09063,182.918243,104.463959,181.397766C105.935379,179.828247,106.818237,177.915405,106.523949,176.934448C106.278709,175.953506,106.769188,174.727325,107.701088,174.18779C109.123459,173.353989,109.123459,173.108749,107.848228,172.274933C105.69014,170.803513,104.90538,170.99971,104.90538,173.010651C104.90538,175.51207,102.060638,179.337769,102.011589,176.885406C101.96254,175.953506,101.570152,175.168747,101.030632,175.168747C99.363014,175.168747,97.155891,178.160645,97.695412,179.63205C97.989685,180.416809,97.695412,181.790146,97.008743,182.623962C95.929695,183.850143,95.929695,184.291565,96.959694,184.929184C98.627304,185.959183,103.04158,185.959183,102.403961,184.929184M98.431122,57.847214C99.363014,55.443893,99.83313,39.121017,86.561638,33.323486C79.204514,31.753967,78.910233,31.950165,78.910233,37.345383C78.910233,41.710602,79.204514,42.348221,81.656891,43.52536C84.992111,45.143936,93.918755,54.217712,95.144936,57.209595C96.174934,59.809128,97.597313,60.054352,98.431122,57.847214M92.594467,70.550507C90.828758,68.931946,90.240189,67.607666,90.681618,66.283386C91.073997,65.008148,90.779716,64.12529,89.847809,63.73291C89.063057,63.438629,88.131149,62.065292,87.787819,60.741013C87.248299,58.68103,86.75782,58.337692,84.74688,58.828171C83.128311,59.269592,82.343552,59.024353,82.343552,58.190552C82.343552,56.964371,78.812134,54.168655,76.948334,53.874374C76.408806,53.825333,75.939072,54.489578,75.476906,53.580078C74.201668,53.089615,69.00264,52.893433,68.21788,53.334854C67.587509,53.713074,66.76619,54.343109,64.490273,54.070572C62.920757,54.168655,60.860764,55.002457,59.879814,55.885315C58.94791,56.719131,57.86887,57.454834,57.47649,57.454834C54.827923,57.454834,51.492699,64.27243,54.141258,64.370529C57.324383,63.733643,61.602852,61.917343,62.383259,61.836929C62.597637,61.814835,68.010468,61.614426,68.734573,61.613098C69.451439,61.611786,73.513893,61.100067,81.465179,63.627609C83.22274,64.186295,92.900108,68.220078,89.737785,67.897583C88.346069,67.755646,84.510468,66.894577,77.174644,64.067184C76.536537,63.821243,72.829796,62.890137,71.106316,62.972427C67.062798,63.165527,61.595226,63.255417,60.56459,63.59964C59.916466,63.816101,56.593033,64.532318,51.639843,65.743866C46.980331,67.411469,46.391762,68.000046,47.765095,69.373367C48.54985,70.158127,49.628895,69.912888,51.737934,68.392426C53.307457,67.264328,61.841713,65.253387,65.42218,65.351486C71.258827,65.547668,76.065475,66.528625,78.566895,68.000046C81.019272,69.471466,90.387337,72.708603,92.054947,72.757645L95.095894,72.855728L92.594467,70.550507M98.283974,68.490524C98.774445,66.087189,96.763504,63.19339,89.161148,55.443893C76.948334,42.98584,69.81517,44.015182,53.999996,54C48.314198,56.863052,48.132805,56.249908,48.644707,54.888428C48.928635,54.13327,48.60598,53.886703,48.66993,53.814651C49.873402,52.458694,52.683952,50.951599,55.563637,48.282959C60.009628,44.985962,60.858612,45.156372,62.773613,44.06488L65,43L64.146942,38.571564C63.460278,35.236343,63.018852,32.244446,63.215042,31.999207C63.362186,31.704926,62.185043,31.410629,60.615528,31.361588C51.996574,32.193573,38.216339,50.042526,47.716045,53.531036C48.74604,53.531036,48.991276,54.070572,48.500805,55.247696C48.108425,56.179611,47.372711,58.288651,46.784142,59.907211C46.244621,61.525772,45.410812,63.291489,44.920341,63.781967C43.645103,65.204346,43.939392,66.479568,45.459862,66.087189C46.195576,65.940048,48.304615,63.880066,50.11937,61.525772C51.934128,59.171494,54.533642,56.670074,55.857922,55.983414C64.637421,51.471054,65.373131,51.274857,71.651207,51.765335C81.264503,52.550095,91.515427,59.220551,94.654465,66.724808C96.223984,70.501465,97.695412,71.188126,98.283974,68.490524M50.806034,197.632477C53.062214,196.847717,53.896023,195.964859,53.896023,194.248215C53.896023,192.825836,54.631737,191.746796,55.857922,191.354401C58.114105,190.618683,58.212204,190.030121,56.544586,187.822998C54.876972,185.615845,55.612686,176.149689,57.427444,176.149689C59.977913,176.149689,59.144104,168.154953,56.299351,165.457352L53.797928,163.103058L54.288406,165.702591C54.533642,167.124969,54.337452,168.302094,53.846977,168.302094C53.307457,168.302094,52.915077,168.74353,52.915077,169.283051C52.915077,169.822571,53.601742,170.263992,54.386501,170.263992C56.986015,170.263992,55.710781,173.353989,52.620792,174.482086C51.198414,175.021606,50.953178,174.776367,51.443649,173.304947C52.179363,170.85257,50.021275,169.479233,48.79509,171.588272C48.157471,172.765411,47.421761,172.961609,46.244621,172.373047C43.007488,170.705414,42.075584,172.274933,44.626057,174.972549C45.950336,176.44397,47.029381,178.062546,46.980331,178.602066C46.980331,179.141586,46.391762,178.798264,45.656052,177.866348C44.969387,176.934448,44.037483,176.493027,43.645103,176.885406C42.664158,177.915405,40.162735,174.236847,40.162735,171.78447C40.162735,169.283051,36.680367,166.094971,34.424187,166.585434C33.296089,166.781631,32.903709,167.713531,33.099899,169.577332C33.296089,171.39209,32.903709,172.274933,31.873714,172.373047C28.293251,172.618286,27.900869,172.86351,28.195156,174.433029C28.587536,176.885406,26.674685,176.542068,25.889925,174.040649C25.39945,172.520187,25.007071,172.32399,24.467548,173.25589C23.486599,174.776367,24.320406,177.326828,26.086115,178.405869C26.821827,178.847305,27.459444,180.171585,27.508492,181.348724C27.606586,182.967285,27.802776,182.820145,28.244202,180.613007C28.587536,179.043488,29.323248,177.915405,29.86277,178.160645C30.892767,178.602066,31.039907,179.141586,31.236097,182.967285C31.334192,185.223465,31.432289,185.223465,32.658478,183.555862C33.492279,182.378723,34.227997,182.133484,34.620369,182.771103C34.963703,183.359665,34.620369,184.487762,33.786568,185.321564C31.677525,187.430603,31.971811,188.215363,34.669418,187.528702C36.287987,187.136322,37.219887,187.430603,37.612267,188.509659C38.053696,189.73584,37.808456,189.932037,36.484177,189.441544C35.356087,189.000122,35.110847,189.098221,35.748466,189.73584C36.287987,190.226318,37.612267,190.863922,38.691315,191.06012C39.770355,191.305359,40.506065,192.090118,40.358925,192.825836C40.113689,193.757721,40.407974,193.85582,41.339874,193.120117C42.762249,191.99202,46.195576,191.795822,45.557957,192.874878C45.214622,193.365341,47.127476,198.662491,47.61795,198.711517C47.666996,198.711517,49.089375,198.221054,50.806034,197.632477M37.710365,182.035385C37.367031,181.495865,37.416077,181.054428,37.808456,181.054428C38.200836,181.054428,37.710365,180.171585,36.729412,179.092529C35.797512,178.062546,34.669418,177.375885,34.227997,177.621109C33.835613,177.915405,33.688469,177.228729,33.982758,176.149689C34.277039,175.070648,34.669418,174.18779,34.865608,174.18779C35.797512,174.18779,39.034645,178.111603,39.623215,179.877289C40.26083,181.986343,38.74036,183.752045,37.710365,182.035385M49.579849,194.93486C48.157471,193.365341,48.108425,192.678696,49.187469,190.324417C50.168419,188.166321,50.168419,187.47966,49.236515,187.185379C48.54985,186.94014,48.01033,185.664902,48.01033,184.291565C48.01033,182.525864,47.61795,181.986343,46.538906,182.378723C45.754147,182.722046,45.067482,182.525864,45.067482,181.986343C45.067482,181.495865,45.901287,181.054428,46.931286,181.054428C48.108425,181.054428,48.991276,180.122543,49.432705,178.553009C50.217464,175.364929,52.326508,175.904449,52.718884,179.435883C52.964123,181.299683,52.620792,182.035385,51.443649,182.035385C50.511749,182.035385,50.11937,181.593964,50.560795,180.907303C51.002224,180.220642,50.806034,180.024445,50.11937,180.465866C48.74604,181.348724,49.138424,184.242523,50.953178,186.449661C52.032219,187.724899,52.081268,188.460602,51.100319,189.981079C50.217464,191.403458,50.217464,192.433441,51.002224,193.904877C52.473648,196.651535,51.688889,197.191055,49.579849,194.93486M67.776459,196.798676C67.531219,194.002975,67.67836,193.757721,68.904549,194.93486C69.738358,195.670593,70.179779,196.602478,69.93454,196.994873C69.689301,197.387238,70.425018,197.730576,71.553108,197.730576C72.877388,197.730576,73.367867,197.338181,72.926437,196.602478C72.485008,195.915802,72.681206,195.719635,73.318817,196.161041C73.907387,196.504395,74.152626,197.436279,73.858337,198.270096C73.269768,199.790573,74.299767,200.084839,76.948334,199.054855C78.272614,198.564392,78.321663,198.270096,77.291664,197.632477C76.261665,196.994873,76.359764,196.798676,77.684044,196.749634C78.615944,196.749634,79.400703,196.308197,79.400703,195.768677C79.400703,193.953918,81.117363,194.78772,81.656891,196.847717C82.294502,199.251038,84.30545,198.466293,84.30545,195.817734C84.30545,194.836761,84.992111,193.757721,85.776871,193.46344C86.61068,193.120117,87.248299,193.267242,87.248299,193.708679C87.248299,194.199158,87.934959,194.836761,88.768768,195.131058C89.945908,195.621536,90.191147,195.032959,90.044006,192.53154C89.896858,190.765839,90.191147,188.754883,90.632576,188.019165C91.172089,187.136322,90.877808,186.842041,89.602577,187.08728C88.621628,187.283463,87.54258,188.558701,87.248299,189.88298C86.75782,192.041061,86.561638,192.090118,85.973061,190.520584C85.041161,188.117264,85.67878,187.332504,89.357338,186.057281C91.073997,185.468704,92.202087,185.223465,91.858757,185.566803C90.926857,186.54776,92.986847,189.88298,94.556374,189.88298C96.665405,189.88298,97.155891,187.038239,95.488274,184.487762C94.654465,183.212524,93.869705,181.790146,93.771606,181.348724C93.722565,180.907303,93.084946,180.613007,92.398285,180.711105C91.711617,180.760162,91.172089,180.465866,91.172089,179.975403C91.172089,179.484924,91.858757,179.092529,92.643517,179.092529C94.360176,179.092529,94.605415,176.591125,92.986847,175.561127C91.564476,174.678268,88.229248,178.602066,88.229248,181.152527C88.229248,182.182526,87.591629,183.016342,86.75782,183.016342C82.588791,183.016342,86.36544,174.874451,91.466385,172.912552C93.869705,171.980667,93.624466,169.332092,91.172089,169.969711C90.093056,170.263992,89.210197,170.901611,89.210197,171.343033C89.210197,171.833527,88.572578,172.225891,87.787819,172.225891C87.003059,172.225891,85.874969,173.108749,85.2864,174.18779C84.011162,176.591125,82.4907,176.689209,81.656891,174.531128C81.264503,173.452072,81.951172,172.176849,83.76593,170.705414C85.48259,169.332092,86.071159,168.302094,85.384491,167.860657C84.795929,167.517334,84.30545,167.66449,84.30545,168.253052C84.30545,168.792572,83.569733,169.283051,82.637833,169.283051C81.705933,169.283051,79.645943,170.705414,78.125473,172.47113L75.329765,175.65921L75.967377,171.490173C76.506905,168.253052,76.310715,167.321152,75.231667,167.321152C73.024536,167.321152,72.632156,168.253052,73.613106,171.490173C75.280716,177.375885,66.55027,182.182526,62.675522,177.572067C61.302193,175.904449,57.280296,182.182526,58.212204,184.585846C59.487434,187.921082,63.362186,185.664902,62.871708,181.888245C62.822662,181.544922,63.411236,181.005402,64.245041,180.711105C65.0298,180.367767,65.667419,180.563965,65.667419,181.103485C65.667419,181.593964,66.795509,182.035385,68.119789,182.035385C69.493118,182.035385,70.572159,182.476807,70.572159,183.016342C70.572159,183.555862,69.93454,183.997284,69.14978,183.997284C68.414078,183.997284,67.580269,184.978241,67.335022,186.204422C66.991699,188.019165,66.8936,187.921082,66.795509,185.615845C66.648361,183.261566,66.403122,182.967285,65.225983,183.948242C64.441231,184.585846,64.0979,185.812042,64.392181,186.645844C64.882652,187.87204,64.34314,188.117264,61.498379,187.773941C58.555534,187.430603,58.114105,187.626801,58.751724,188.852982C59.291245,189.784882,59.046005,190.863922,58.212204,191.648697C57.47649,192.335358,56.838875,192.580597,56.838875,192.188202C56.838875,191.795822,56.348396,191.942963,55.710781,192.580597C53.896023,194.395355,60.321243,199.201996,63.165993,198.122955C64.048851,197.779617,64.931702,198.171997,65.27504,199.152954C66.35408,201.850555,68.119789,200.182938,67.776459,196.798676M77.340706,195.719635C76.703094,193.267242,76.752144,189.88298,77.389755,189.88298C78.664993,189.88298,79.449753,194.150116,78.370705,195.229156C77.880234,195.719635,77.389755,195.964859,77.340706,195.719635M80.774033,187.332504C81.117363,186.498718,81.362602,185.174423,81.362602,184.389664C81.362602,183.653961,82.049271,183.016342,82.883072,183.016342C84.207359,183.016342,84.207359,183.310623,82.83403,185.959183C81.264503,189.049179,79.744034,190.030121,80.774033,187.332504M62.234093,193.071075C62.626472,192.13916,62.969807,190.81488,63.018852,190.12822C63.018852,189.294418,63.607422,189.392502,64.833603,190.520584C66.55027,192.041061,66.55027,192.188202,64.931702,193.414398C62.528378,195.229156,61.400284,195.082016,62.234093,193.071075M71.356926,192.090118C70.866447,189.833939,72.583107,184.978241,74.692146,182.623962C75.967377,181.250626,76.114525,180.318726,75.378815,178.945389C74.152626,176.640167,76.359764,175.51207,79.204514,177.032547C80.234512,177.572067,81.313553,177.817307,81.607841,177.572067C81.853073,177.277786,81.558792,178.651108,80.970222,180.613007C80.381653,182.525864,79.744034,183.457764,79.596893,182.623962C79.400703,181.839203,78.664993,181.397766,77.929283,181.692062C76.310715,182.280624,72.190727,188.902039,73.416916,188.902039C73.858337,188.902039,74.005486,190.030121,73.760246,191.354401C73.220726,194.199158,71.847397,194.591522,71.356926,192.090118M106.278709,167.075912C107.01442,165.849716,107.946327,163.348297,108.338699,161.435455C108.731087,159.57164,109.662994,156.972137,110.447739,155.696899C112.164406,153.04834,112.507736,148.535965,111.428696,144.023605C110.742035,141.178864,110.889175,140.737427,113.145363,139.903625C115.597733,138.97171,115.695824,138.628387,115.695824,130.780792C115.695824,126.317467,116.333443,117.88131,117.118202,112.044662C118.58963,101.058029,118.001053,96.692802,115.058212,96.692802C114.322495,96.692802,113.733932,96.202332,113.733932,95.613762C113.733932,94.976135,114.616776,94.730911,115.695824,95.025185C117.804871,95.56472,118.393433,90.856155,117.069153,84.087601C116.235344,80.114761,115.597733,68.882889,107.259659,57.749115L104.16967,53.580078L103.5811,58.828171C103.23777,61.721954,103.23777,66.724808,103.5811,69.912888L104.16967,75.749542L96.616356,82.223801C86.316391,91.052345,71.356926,94.927101,80.724991,86.343796C85.924019,81.53714,80.626892,73.738602,69.738358,70.10907C61.351242,67.31337,48.353661,78.496201,54.141258,83.499054C55.612686,84.774277,56.838875,86.834259,56.887917,88.060448C56.887917,89.286644,57.525539,91.150444,58.359344,92.229477C59.144104,93.259483,59.781719,95.172333,59.781719,96.447563C59.781719,97.673759,60.468384,99.782799,61.351242,101.107079C62.822662,103.363266,62.822662,103.608498,61.302193,104.148018C59.879814,104.736595,59.928864,104.932777,61.694572,106.208008C64.245041,107.973724,64.294083,109.445145,61.743618,109.445145C60.664577,109.445145,59.781719,109.886574,59.781719,110.426094C59.781719,110.965622,59.291245,111.407043,58.702675,111.407043C58.114105,111.407043,56.887917,112.289902,56.005066,113.319893C51.688889,118.469879,22.652794,114.693222,25.497545,109.347054C27.802776,105.030876,36.238937,103.461349,37.612267,107.090866C38.249886,108.758484,54.386501,109.101814,55.367451,107.483253C56.69173,105.374207,46.833191,102.382309,38.053696,102.235168C33.394188,102.13707,29.764673,101.744698,30.009911,101.35231C30.25515,100.959938,30.892767,100.6166,31.432289,100.6166C31.971811,100.6166,34.031803,99.880898,36.042747,98.998039C41.536064,96.545662,42.860348,96.496613,47.274616,98.654709C49.481754,99.733749,51.836033,100.6166,52.522697,100.6166C53.160313,100.6166,53.896023,101.205177,54.190308,101.940887C54.484592,102.676598,55.563637,103.510399,56.642681,103.804688C58.898869,104.393257,58.261246,100.567551,55.465546,96.496613C54.582687,95.270424,53.896023,93.11235,53.896023,91.640923C53.896023,89.139496,51.737934,86.932358,45.901287,83.449997C34.963703,76.926682,32.70752,74.327164,33.197998,68.735748C33.590378,64.419586,35.110847,63.487671,34.963703,67.656708C34.914658,69.961945,35.503227,71.825745,36.680367,72.904785C38.397026,74.572403,38.446075,74.523346,37.759407,72.169083C36.729412,68.539566,36.925606,66.234329,38.54417,64.468613C40.702255,62.065292,41.536064,57.651016,40.211784,56.032455C39.52512,55.247696,39.279884,54.119614,39.623215,53.580078C40.015594,52.991516,39.86845,52.550095,39.32893,52.550095C38.838455,52.550095,37.906551,53.776276,37.268936,55.247696C34.571327,61.86911,29.274199,71.237183,28.538488,70.795746C26.919922,69.814804,23.535646,79.967621,23.437551,86.000458C23.388506,87.864265,22.50565,93.553772,21.426605,98.654709C18.434711,112.731323,16.767097,130.927933,17.551857,140.835526C17.649952,141.669327,17.404715,144.366943,17.11043,146.917419C16.669003,150.203583,16.963287,152.361679,18.091379,154.568817C18.974234,156.285461,19.464708,158.345459,19.121376,159.179276C18.778044,160.111176,19.268517,160.797836,20.543751,161.141174C21.622795,161.435455,22.50565,162.073074,22.50565,162.514496C22.50565,163.004974,23.192314,163.397354,23.977074,163.397354C24.810881,163.397354,25.448498,162.955933,25.448498,162.416397C25.448498,161.876877,25.889925,161.435455,26.478495,161.435455C27.018017,161.435455,29.323248,160.552597,31.57943,159.473557C35.797512,157.462616,40.06464,156.92308,41.683208,158.296417C42.517014,158.983078,41.777241,158.806213,47.319603,160.424789C48.987213,160.866211,51.734009,160.927002,54.644608,159.449707C56.957088,158.04921,61.296089,158.336395,62.178947,158.630676C72.683342,163.450684,72.17675,162.524719,74.481987,162.524719L81.558792,160.944977C89.406387,161.190216,93.133995,162.024017,93.133995,163.495453C93.133995,164.280212,102.403961,169.184952,104.16967,169.234009C104.56205,169.283051,105.493958,168.302094,106.278709,167.075912M27.067064,97.03614C25.938972,95.859009,26.3804,94.583771,27.655634,95.368523C28.342297,95.809959,30.892767,96.447563,33.296089,96.790901L37.710365,97.42852L32.70752,97.526611C29.960863,97.62471,27.459444,97.379471,27.067064,97.03614M102.50206,102.578506C100.834442,101.989937,103.5811,99.978989,106.278709,99.831848C106.769188,99.831848,107.455856,99.29232,107.848228,98.703758C108.338699,97.869942,108.829185,97.968033,109.613945,98.89994C110.987274,100.567551,105.199669,103.559448,102.50206,102.578506M93.624466,119.54892C91.073997,119.303688,83.079262,117.979401,76.850235,116.753212C74.594048,116.31179,72.288826,112.191803,73.122635,110.033714C73.416916,109.248955,73.171677,107.679436,72.534058,106.502296C71.307877,104.246109,72.828339,98.654709,74.594048,98.654709C75.084526,98.654709,76.065475,97.232338,76.850235,95.466621C77.929283,92.916153,78.321663,92.621864,78.861183,93.946144C79.302612,94.927101,78.615944,97.232338,77.046425,99.880898C73.564056,105.766586,74.299767,107.139915,79.400703,104.540398C80.479744,104.000885,82.294502,103.068977,83.471642,102.480408C86.071159,101.156128,95.046844,100.6166,94.801605,101.842789C94.703506,102.284218,97.499214,104.295158,100.981583,106.158974C108.436798,110.229912,108.387749,110.229912,107.455856,111.112755C107.063469,111.505142,106.474899,111.407043,106.082527,110.818474C102.600159,105.717537,78.321663,104.295158,76.752144,109.101814C76.261665,110.475136,88.425438,111.701332,93.869705,110.867523C101.324921,109.641342,113.096313,116.458939,108.093468,119.107498C106.474899,119.990356,100.000633,120.186539,93.624466,119.54892"/>
</svg>
